<svg width="600" height="400" xmlns="http://www.w3.org/2000/svg">
  <rect width="100%" height="100%" fill="#f8f9fa"/>
  <text x="300" y="40" font-size="24" text-anchor="middle" fill="#333">DRIS Navigation Flow</text>
  <rect x="250" y="60" width="100" height="40" fill="#007bff" rx="8"/>
  <text x="300" y="85" font-size="16" text-anchor="middle" fill="#fff">Login</text>
  <line x1="300" y1="100" x2="300" y2="130" stroke="#333" stroke-width="2"/>
  <rect x="200" y="130" width="200" height="40" fill="#6c757d" rx="8"/>
  <text x="300" y="155" font-size="16" text-anchor="middle" fill="#fff">Dashboard Router</text>
  <line x1="300" y1="170" x2="120" y2="210" stroke="#333" stroke-width="2"/>
  <line x1="300" y1="170" x2="300" y2="210" stroke="#333" stroke-width="2"/>
  <line x1="300" y1="170" x2="480" y2="210" stroke="#333" stroke-width="2"/>
  <rect x="40" y="210" width="160" height="40" fill="#28a745" rx="8"/>
  <rect x="240" y="210" width="120" height="40" fill="#ffc107" rx="8"/>
  <rect x="440" y="210" width="120" height="40" fill="#dc3545" rx="8"/>
  <text x="120" y="235" font-size="15" text-anchor="middle" fill="#fff">Citizen</text>
  <text x="300" y="235" font-size="15" text-anchor="middle" fill="#333">Volunteer</text>
  <text x="500" y="235" font-size="15" text-anchor="middle" fill="#fff">Authority</text>
  <line x1="120" y1="250" x2="120" y2="300" stroke="#333" stroke-width="2"/>
  <line x1="300" y1="250" x2="300" y2="300" stroke="#333" stroke-width="2"/>
  <line x1="500" y1="250" x2="500" y2="300" stroke="#333" stroke-width="2"/>
  <rect x="60" y="300" width="120" height="80" fill="#e9ecef" rx="8"/>
  <rect x="240" y="300" width="120" height="80" fill="#e9ecef" rx="8"/>
  <rect x="420" y="300" width="160" height="80" fill="#e9ecef" rx="8"/>
  <text x="120" y="320" font-size="13" text-anchor="middle" fill="#333">- Report Disaster</text>
  <text x="120" y="340" font-size="13" text-anchor="middle" fill="#333">- Submit Aid Request</text>
  <text x="120" y="360" font-size="13" text-anchor="middle" fill="#333">- My Aid Requests</text>
  <text x="120" y="380" font-size="13" text-anchor="middle" fill="#333">- Shelter Directory</text>
  <text x="300" y="320" font-size="13" text-anchor="middle" fill="#333">- Register/Update</text>
  <text x="300" y="340" font-size="13" text-anchor="middle" fill="#333">- Disaster Reports</text>
  <text x="300" y="360" font-size="13" text-anchor="middle" fill="#333">- Shelter Directory</text>
  <text x="300" y="380" font-size="13" text-anchor="middle" fill="#333">- Assignments</text>
  <text x="500" y="320" font-size="13" text-anchor="middle" fill="#333">- Admin Dashboard</text>
  <text x="500" y="340" font-size="13" text-anchor="middle" fill="#333">- Manage Users</text>
  <text x="500" y="360" font-size="13" text-anchor="middle" fill="#333">- Volunteers/Shelters</text>
  <text x="500" y="380" font-size="13" text-anchor="middle" fill="#333">- Aid/Disaster Reports</text>
</svg>
